HIERARCHY
ROOT root
{
	OFFSET 0.000000 0.000000 0.000000
	CHANNELS 6 Xposition Yposition Zposition Zrotation Yrotation Xrotation
	JOINT lhip
	{
		OFFSET 0.058581 -0.082280 -0.017664
		CHANNELS 3 Zrotation Yrotation Xrotation
		JOINT lknee
		{
			OFFSET 0.043451 -0.386469 0.008037
			CHANNELS 3 Zrotation Yrotation Xrotation
			JOINT lankle
			{
				OFFSET -0.014790 -0.426874 -0.037428
				CHANNELS 3 Zrotation Yrotation Xrotation
				JOINT ltoe
				{
					OFFSET 0.041054 -0.060286 0.122042
					CHANNELS 3 Zrotation Yrotation Xrotation
					End Site
					{
						OFFSET 0.000000 0.000000 0.000000
					}
				}
			}
		}
	}
	JOINT rhip
	{
		OFFSET -0.060310 -0.090513 -0.013543
		CHANNELS 3 Zrotation Yrotation Xrotation
		JOINT rknee
		{
			OFFSET -0.043257 -0.383688 -0.004843
			CHANNELS 3 Zrotation Yrotation Xrotation
			JOINT rankle
			{
				OFFSET 0.019056 -0.420046 -0.034562
				CHANNELS 3 Zrotation Yrotation Xrotation
				JOINT rtoe
				{
					OFFSET -0.034840 -0.062106 0.130323
					CHANNELS 3 Zrotation Yrotation Xrotation
					End Site
					{
						OFFSET 0.000000 0.000000 0.000000
					}
				}
			}
		}
	}
	JOINT lowerback
	{
		OFFSET 0.004439 0.124404 -0.038385
		CHANNELS 3 Zrotation Yrotation Xrotation
		JOINT upperback
		{
			OFFSET 0.004488 0.137956 0.026820
			CHANNELS 3 Zrotation Yrotation Xrotation
			JOINT chest
			{
				OFFSET -0.002265 0.056032 0.002855
				CHANNELS 3 Zrotation Yrotation Xrotation
				JOINT lowerneck
				{
					OFFSET -0.013390 0.211636 -0.033468
					CHANNELS 3 Zrotation Yrotation Xrotation
					JOINT upperneck
					{
						OFFSET 0.010113 0.088937 0.050410
						CHANNELS 3 Zrotation Yrotation Xrotation
						End Site
						{
							OFFSET 0.000000 0.000000 0.000000
						}
					}
				}
				JOINT lclavicle
				{
					OFFSET 0.071702 0.114000 -0.018898
					CHANNELS 3 Zrotation Yrotation Xrotation
					JOINT lshoulder
					{
						OFFSET 0.122921 0.045205 -0.019046
						CHANNELS 3 Zrotation Yrotation Xrotation
						JOINT lelbow
						{
							OFFSET 0.255332 -0.015649 -0.022946
							CHANNELS 3 Zrotation Yrotation Xrotation
							JOINT lwrist
							{
								OFFSET 0.265709 0.012698 -0.007375
								CHANNELS 3 Zrotation Yrotation Xrotation
								End Site
								{
									OFFSET 0.000000 0.000000 0.000000
								}
							}
						}
					}
				}
				JOINT rclavicle
				{
					OFFSET -0.082954 0.112472 -0.023707
					CHANNELS 3 Zrotation Yrotation Xrotation
					JOINT rshoulder
					{
						OFFSET -0.113228 0.046853 -0.008472
						CHANNELS 3 Zrotation Yrotation Xrotation
						JOINT relbow
						{
							OFFSET -0.260127 -0.014369 -0.031269
							CHANNELS 3 Zrotation Yrotation Xrotation
							JOINT rwrist
							{
								OFFSET -0.269108 0.006794 -0.006027
								CHANNELS 3 Zrotation Yrotation Xrotation
								End Site
								{
									OFFSET 0.000000 0.000000 0.000000
								}
							}
						}
					}
				}
			}
		}
	}
}
MOTION
Frames: 8
Frame Time: 0.033333
0.073776 0.828866 0.573701 56.906342 0.449446 51.319556 6.892416 -12.916297 -56.477730 -4.596117 19.662145 123.622573 9.819128 7.137243 -15.770538 0.000000 -0.000000 0.000000 -11.199448 3.893214 -47.822000 -2.499278 -11.931649 118.558382 -2.720317 -2.982352 -20.540055 0.000000 -0.000000 0.000000 1.983347 3.100193 44.532253 2.996856 -2.819574 12.077844 -2.518777 -1.085007 -0.143734 -1.383465 0.257539 -2.694606 5.153725 -6.809854 -7.224763 -20.899379 -20.865453 7.403244 -66.362746 -4.344413 8.972026 24.164682 -40.924420 -1.623772 -1.738804 2.511851 -7.720758 23.298875 17.498357 6.329049 68.853441 6.133172 4.939890 -27.813787 32.584928 -7.823689 10.342353 -4.025843 -4.932486 
0.074045 0.829371 0.573639 56.589848 0.667787 51.202780 7.117008 -12.779832 -56.244538 -4.647741 19.565037 123.683491 9.646334 7.203286 -16.244497 0.000000 -0.000000 0.000000 -10.770829 3.972542 -47.779765 -2.196113 -11.878919 118.554835 -2.765884 -3.055158 -20.486882 0.000000 -0.000000 0.000000 1.404234 2.791604 44.217735 3.004622 -3.081022 12.305841 -1.974269 -0.386973 0.222686 -1.947851 -0.020302 -2.752288 5.510778 -6.166520 -7.649584 -21.247965 -21.046176 7.059828 -66.671543 -3.935547 8.748029 24.691361 -40.915931 -2.043574 -1.303952 2.499956 -7.603213 22.808611 18.677853 7.133600 68.628044 6.201216 4.607418 -27.861738 32.980815 -7.776647 10.093971 -4.031672 -5.018075 
0.074331 0.829814 0.573629 56.318028 0.810859 51.105197 7.366274 -12.719999 -56.038778 -4.725606 19.580655 123.589138 9.512756 7.411445 -17.145855 0.000000 -0.000000 0.000000 -10.294295 3.902725 -47.703879 -1.918515 -11.656195 118.536272 -2.747748 -3.206913 -20.353922 0.000000 -0.000000 0.000000 0.519417 2.641630 43.810230 3.122088 -3.453800 12.725585 -1.114413 0.433502 0.552930 -3.059195 -0.691484 -2.669372 5.972397 -5.059185 -8.185936 -21.839710 -21.215690 6.701235 -66.942071 -3.535552 8.270426 25.090679 -41.017079 -2.490206 -0.913725 2.611409 -7.194220 22.155478 20.072151 7.948852 68.262702 6.254861 3.856226 -28.009722 33.495496 -8.468075 10.285125 -3.954481 -5.095172 
0.074476 0.830582 0.573329 56.016194 0.696111 50.679996 7.400900 -12.600963 -55.564322 -4.747981 19.589011 123.495159 9.666732 7.601615 -17.906107 0.000000 -0.000000 0.000000 -9.899757 4.012451 -47.316738 -1.608916 -11.324829 118.541535 -2.830546 -3.159230 -20.390885 0.000000 -0.000000 0.000000 -0.629034 1.887419 43.767886 2.634210 -4.182097 13.569568 -0.728639 1.844738 0.689740 -3.998295 -0.653929 -3.068887 6.662220 -4.353714 -8.463799 -21.766852 -20.800173 5.510327 -67.190591 -2.750832 7.921395 25.217685 -41.401841 -2.423852 -0.376850 2.678434 -7.396165 21.959992 21.698606 8.879463 67.843516 6.815856 3.646170 -27.334302 33.471848 -7.981402 8.568519 -4.009803 -4.420750 
0.074605 0.830772 0.573142 55.941072 0.584879 50.558196 7.332708 -12.529577 -55.442963 -4.698489 19.609714 123.496974 9.804503 7.578782 -17.552463 0.000000 -0.000000 0.000000 -9.907889 4.108700 -47.225086 -1.552746 -11.259356 118.555593 -2.820912 -3.200056 -20.376120 0.000000 -0.000000 0.000000 -0.649627 1.896683 43.915742 2.560558 -4.140252 13.506986 -0.781678 1.893600 0.768429 -3.976743 -0.621739 -3.172382 6.660363 -4.462384 -8.386252 -21.648117 -20.742542 5.448862 -67.207189 -2.810362 7.981664 25.067779 -41.408901 -2.246562 -0.244848 2.694001 -7.503307 21.996062 21.681633 8.876085 67.818765 6.877326 3.659237 -27.331333 33.454322 -8.064879 8.400429 -3.990796 -4.535419 
0.076116 0.830941 0.573208 55.826101 0.774976 51.208347 7.352702 -12.243681 -56.391583 -4.623049 19.180722 123.799199 9.261519 7.946158 -18.145021 0.000000 -0.000000 0.000000 -9.730084 3.798558 -47.776991 -1.698600 -10.969023 118.595452 -2.288675 -2.888191 -20.273683 0.000000 -0.000000 0.000000 0.034399 3.010841 46.133738 3.317573 -2.886927 7.280173 0.403013 0.550183 2.116349 -5.083580 -3.103800 -0.122075 7.507145 -3.484924 -9.759138 -23.731957 -20.622935 8.321637 -67.253218 -3.364622 7.358886 25.063140 -41.211198 -1.780889 -0.344505 2.584687 -6.980950 21.379991 19.964369 9.314587 67.844824 5.598625 2.152930 -26.525518 34.405293 -8.022297 8.771814 -3.573082 -6.275341 
0.075995 0.831208 0.573179 55.825655 0.787566 51.179842 7.453046 -12.191669 -56.506121 -4.653943 19.201010 123.915445 9.104238 8.025187 -18.416638 0.000000 -0.000000 0.000000 -9.742396 3.823523 -47.640786 -1.674857 -11.017215 118.560397 -2.232018 -2.865168 -20.351245 0.000000 -0.000000 0.000000 0.071839 3.022990 46.166947 3.345213 -2.949366 7.288200 0.381117 0.578309 2.098440 -5.171895 -3.239263 0.088793 7.771474 -3.729458 -10.012330 -23.757951 -20.615800 8.519135 -67.208947 -3.379178 7.290948 25.102481 -41.359379 -1.641510 -0.448592 2.622067 -7.356535 21.393855 19.947522 9.467116 67.833085 5.670118 2.108918 -26.404587 34.562775 -7.588473 8.479100 -3.489253 -6.508976 
0.076382 0.831657 0.572819 55.743692 0.630092 51.105052 7.468683 -12.137388 -56.523195 -4.563375 19.327029 124.080085 8.944556 7.941720 -18.432195 0.000000 -0.000000 0.000000 -9.883936 3.894505 -47.599630 -1.616631 -10.989898 118.626444 -2.139321 -2.803439 -20.302653 0.000000 -0.000000 0.000000 0.070934 3.094143 46.075032 3.320798 -2.925198 7.508767 0.291038 0.585291 2.232807 -5.125569 -3.081810 -0.060121 7.756848 -3.909754 -9.943070 -23.627401 -20.556043 8.394011 -67.268927 -3.480009 7.440702 25.031769 -41.333756 -1.564726 -0.257480 2.603307 -7.532113 21.346482 19.821722 9.277884 67.815124 5.671215 2.298833 -26.389191 34.647389 -7.517695 8.312934 -3.364167 -6.682574 
